<svg xmlns="http://www.w3.org/2000/svg" xmlns:xlink="http://www.w3.org/1999/xlink" viewBox="0 0 500 500"><defs><clipPath id="freepik--clip-path--inject-70"><path d="M315.47,321.29H197.66a25.77,25.77,0,0,0-25.77,25.76h0a25.76,25.76,0,0,0,23.37,25.65v64.65H315V372.82h.5a25.76,25.76,0,0,0,25.76-25.77h0A25.76,25.76,0,0,0,315.47,321.29Z" style="fill:#7E57C2;stroke:#263238;stroke-linecap:round;stroke-linejoin:round;stroke-width:1.109751046113871px"></path></clipPath><clipPath id="freepik--clip-path-2--inject-70"><path d="M266.9,185.67c29.07,8.54,45.68,11.21,45.68,11.21,1-20.68,3.67-32.08,3.06-56.65,0,0-5.59-5.47-4.75-8.66.34-1.33,3.19-8.54,3.19-8.54l11.69-10.62s6.61,5.38,6.28,11.57c0,0,1.17,6.57,0,9.88s-3.66,10-3.66,10,.71,24.7,4.1,38.71.88,36.86-4.76,37.37-64.42-4.72-64.42-4.72S260.42,183.76,266.9,185.67Z" style="fill:#fff;stroke:#263238;stroke-linecap:round;stroke-linejoin:round;stroke-width:1.109751046113871px"></path></clipPath><clipPath id="freepik--clip-path-3--inject-70"><path d="M237.94,178.87s17.2-1.3,27.51,2.86,27.51,8,27.51,8-1.43,20.08-7.07,27.35l-28.69,6.24S249.29,184.23,237.94,178.87Z" style="fill:#757575;stroke:#263238;stroke-linecap:round;stroke-linejoin:round;stroke-width:1.109751046113871px"></path></clipPath><clipPath id="freepik--clip-path-4--inject-70"><path d="M325.56,347.23,387.81,415s-.22,8-12.39,7.88c0,0-35.72-19.92-45.1-25.61S304.18,364,304.18,364Z" style="fill:#fff;stroke:#263238;stroke-linecap:round;stroke-linejoin:round;stroke-width:1.109751046113871px"></path></clipPath><clipPath id="freepik--clip-path-5--inject-70"><path d="M265.45,285.51s101,11.09,109.44,16.23,12.7,20.84,12.7,20.84c-19.58,3.32-42.81,15.07-42.81,15.07v-4.08S248.21,337,223,339.15" style="fill:#bfbfbf;stroke:#263238;stroke-miterlimit:10;stroke-width:1.109751046113871px"></path></clipPath><clipPath id="freepik--clip-path-6--inject-70"><path d="M253.39,322c-.88-3.44,15-6.35,15-6.35s40.87,16.14,48.82,20.75,19.93,16.55,19.93,16.55c-4.91,16.4-33,26.52-33,26.52l-5.78-4.62s-76.17-10.33-83.4-20.89c-5.17-7.55-9.12-31.34-9.12-31.34l27.31-27.65" style="fill:#bfbfbf;stroke:#263238;stroke-miterlimit:10;stroke-width:1.109751046113871px"></path></clipPath><clipPath id="freepik--clip-path-7--inject-70"><path d="M263.05,218.89c-6.19,6.49-3.44,46.08-5.85,53.64,0,0,4.47,3.1,4.47,5.85s12,3.78,12,3.78S249,320.33,233.13,326.52a54.17,54.17,0,0,1-30.92,2.06l-15-55.88L185.75,275s-11.42-17.92-23.8-15.51c0,0,10-31.45,16.51-43.33,5-9,25.67-21.57,43.44-32.1,7.43-4.41,20.67-7.84,30.49-2.31" style="fill:#757575;stroke:#263238;stroke-linecap:round;stroke-linejoin:round;stroke-width:1.109751046113871px"></path></clipPath><clipPath id="freepik--clip-path-8--inject-70"><path d="M201.64,308.56H60.46A2.55,2.55,0,0,1,57.91,306h0a2.55,2.55,0,0,1,2.55-2.56H201.64A2.56,2.56,0,0,1,204.2,306h0A2.56,2.56,0,0,1,201.64,308.56Z" style="fill:#7E57C2;stroke:#263238;stroke-linecap:round;stroke-linejoin:round;stroke-width:1.109751046113871px"></path></clipPath><clipPath id="freepik--clip-path-9--inject-70"><rect x="61.78" y="308.56" width="138.54" height="136.7" style="fill:#7E57C2;stroke:#263238;stroke-linecap:round;stroke-linejoin:round;stroke-width:1.109751046113871px"></rect></clipPath></defs><g id="freepik--background-simple--inject-70"><path d="M67.93,167.09s-27.88,72,11.3,144.5S199.11,422.39,263.7,455.14s131.66,16.8,163.53-36.84-11.84-91.93-11.9-168.42,11.45-96.74-30-161.36-143.06-78.93-219.9-31S67.93,167.09,67.93,167.09Z" style="fill:#fff;opacity:0.7000000000000001"></path><path d="M85.8,95.89C100.73,78,120.91,64.23,145,64.53c41,.5,63.23,36.84,86.8,64.88C244,144,257.84,158,276,164.81c27.21,10.25,57.5,4.26,84-5.25,11.87-4.26,25.93-10.25,39.3-7.19,40.65,9.3,36.42,58.91,29.7,90.32-9.06,42.41-23.8,87.57-53.66,120.15-71.5,78-200.18,30.19-264.67-32.06-4.74-4.57-9.29-9.35-13.56-14.37a200,200,0,0,1-27.92-42.66C48.37,230.53,45.51,178,63.53,133.32A142.16,142.16,0,0,1,85.8,95.89Z" style="fill:#7E57C2"></path><path d="M85.8,95.89C100.73,78,120.91,64.23,145,64.53c41,.5,63.23,36.84,86.8,64.88C244,144,257.84,158,276,164.81c27.21,10.25,57.5,4.26,84-5.25,11.87-4.26,25.93-10.25,39.3-7.19,40.65,9.3,36.42,58.91,29.7,90.32-9.06,42.41-23.8,87.57-53.66,120.15-71.5,78-200.18,30.19-264.67-32.06-4.74-4.57-9.29-9.35-13.56-14.37a200,200,0,0,1-27.92-42.66C48.37,230.53,45.51,178,63.53,133.32A142.16,142.16,0,0,1,85.8,95.89Z" style="fill:#fff;opacity:0.7000000000000001"></path></g><g id="freepik--Plant--inject-70"><line x1="481.43" y1="437.35" x2="28.57" y2="437.35" style="fill:none;stroke:#263238;stroke-linecap:round;stroke-linejoin:round;stroke-width:1.109751046113871px"></line><path d="M435.05,388.16s3.24-28.19,14-52.63,1.07-29.66-4.69-23.55-12.09,29-12.09,29,2.85-24,1.7-36.79c-1.7-18.73-4.62-33.37-13.25-31.05-10,2.67,4.19,38.81.45,76.73,0,0-13.16-20.9-17.8-38.76S386.88,301,391,317s20.11,24.91,26.3,42.25c0,0-20.59-19.05-27.16-11.55-3.71,4.23,5.67,7.28,9.73,9.22,19.71,9.44,24.76,33.05,24.76,33.05Z" style="fill:#7E57C2;stroke:#263238;stroke-linecap:round;stroke-linejoin:round;stroke-width:1.109751046113871px"></path><path d="M435.05,388.16s3.24-28.19,14-52.63,1.07-29.66-4.69-23.55-12.09,29-12.09,29,2.85-24,1.7-36.79c-1.7-18.73-4.62-33.37-13.25-31.05-10,2.67,4.19,38.81.45,76.73,0,0-13.16-20.9-17.8-38.76S386.88,301,391,317s20.11,24.91,26.3,42.25c0,0-20.59-19.05-27.16-11.55-3.71,4.23,5.67,7.28,9.73,9.22,19.71,9.44,24.76,33.05,24.76,33.05Z" style="fill-opacity:0.7000000000000001;stroke:#263238;stroke-miterlimit:10;stroke-width:1.109751046113871px;opacity:0.2"></path><path d="M423.08,382.08s1.63-29.5-9.14-53.94-1.15-26.34,4.61-20.24,10.15,37.76,10.15,37.76,5.07-28.34,2.77-47.94-2.15-30.63,5.93-30.64c10.31,0,7.89,48-.45,76.74,0,0,13.15-20.9,17.8-38.76s16.5-10.13,12.37,5.86-20.11,24.91-26.3,42.25c0,0,20.59-19.05,27.16-11.55,3.7,4.23-5.67,7.27-9.73,9.22-19.71,9.44-24.76,33.05-24.76,33.05Z" style="fill:#7E57C2;stroke:#263238;stroke-linecap:round;stroke-linejoin:round;stroke-width:1.109751046113871px"></path><path d="M419.39,326.91c9.14,20.63,9.66,50.71,9.66,50.71s12-59.77,9-84.95" style="fill:none;stroke:#263238;stroke-linecap:round;stroke-linejoin:round;stroke-width:1.109751046113871px"></path><path d="M458.9,315.06s-13.42,28.32-25.69,39.19" style="fill:none;stroke:#263238;stroke-linecap:round;stroke-linejoin:round;stroke-width:1.109751046113871px"></path><path d="M458.9,345.57s-22.68,14.6-28.24,23.54" style="fill:none;stroke:#263238;stroke-linecap:round;stroke-linejoin:round;stroke-width:1.109751046113871px"></path><polygon points="460.38 370.51 397.22 370.51 402.11 437.35 455.49 437.35 460.38 370.51" style="fill:#757575;stroke:#263238;stroke-linecap:round;stroke-linejoin:round;stroke-width:1.109751046113871px"></polygon></g><g id="freepik--Bubble--inject-70"><path d="M172.05,171.76s-16.68-5.77-26-17.65c0,0-3.65.29-5.44.3" style="fill:none;stroke:#263238;stroke-linecap:round;stroke-linejoin:round;stroke-width:1.109751046113871px"></path><path d="M179.21,110.45a22.73,22.73,0,0,1,3.62,9.94c1.43,12.91-8.68,25.12-24,30.76,0,0,.9,11.79,13.19,20.61" style="fill:none;stroke:#263238;stroke-linecap:round;stroke-linejoin:round;stroke-width:1.109751046113871px"></path><path d="M173.34,104a29.72,29.72,0,0,1,2.79,2.56" style="fill:none;stroke:#263238;stroke-linecap:round;stroke-linejoin:round;stroke-width:1.109751046113871px"></path><path d="M116.69,104a51.51,51.51,0,0,1,49-4.71" style="fill:none;stroke:#263238;stroke-linecap:round;stroke-linejoin:round;stroke-width:1.109751046113871px"></path><path d="M130.1,153.38c-14.47-3-25.36-12.19-26.68-24.17-.93-8.36,3-16.44,10-22.62" style="fill:none;stroke:#263238;stroke-linecap:round;stroke-linejoin:round;stroke-width:1.109751046113871px"></path><path d="M131.44,114.81c1.1-3.84,6.7-4.48,9.17-8.22v26.77c0,5,9.49,6.37,12.78,2.64s-2.85-10.1-11-5.27" style="fill:none;stroke:#263238;stroke-linecap:round;stroke-linejoin:round;stroke-width:1.109751046113871px"></path></g><g id="freepik--Character--inject-70"><path d="M315.47,321.29H197.66a25.77,25.77,0,0,0-25.77,25.76h0a25.76,25.76,0,0,0,23.37,25.65v64.65H315V372.82h.5a25.76,25.76,0,0,0,25.76-25.77h0A25.76,25.76,0,0,0,315.47,321.29Z" style="fill:#7E57C2"></path><g style="clip-path:url(#freepik--clip-path--inject-70)"><path d="M315.47,321.29H197.66a25.77,25.77,0,0,0-25.77,25.76h0a25.76,25.76,0,0,0,23.37,25.65v64.65H315V372.82h.5a25.76,25.76,0,0,0,25.76-25.77h0A25.76,25.76,0,0,0,315.47,321.29Z" style="fill-opacity:0.7000000000000001;opacity:0.30000000000000004"></path><path d="M341.23,347.05a25.76,25.76,0,0,1-25.76,25.76H315v34.67c-25-11.63-52.3-34.81-52.3-34.81l-13.22-4.59c-42.54,3.37-56.22-27.17-69.31-39.9a25.66,25.66,0,0,1,17.52-6.88H315.47a25.76,25.76,0,0,1,25.76,25.75Z" style="fill-opacity:0.7000000000000001;opacity:0.30000000000000004"></path><path d="M298.13,372.7h7.14" style="fill:#fff;stroke:#263238;stroke-linecap:round;stroke-linejoin:round;stroke-width:1.109751046113871px"></path><path d="M242.41,372.66v0h46.32Q265.42,372.66,242.41,372.66Z" style="fill:#fff;stroke:#263238;stroke-linecap:round;stroke-linejoin:round;stroke-width:1.109751046113871px"></path><path d="M231,372.66l-35.74,0H231Z" style="fill:#fff;stroke:#263238;stroke-linecap:round;stroke-linejoin:round;stroke-width:1.109751046113871px"></path></g><path d="M315.47,321.29H197.66a25.77,25.77,0,0,0-25.77,25.76h0a25.76,25.76,0,0,0,23.37,25.65v64.65H315V372.82h.5a25.76,25.76,0,0,0,25.76-25.77h0A25.76,25.76,0,0,0,315.47,321.29Z" style="fill:none;stroke:#263238;stroke-linecap:round;stroke-linejoin:round;stroke-width:1.109751046113871px"></path><path d="M266.9,185.67c29.07,8.54,45.68,11.21,45.68,11.21,1-20.68,3.67-32.08,3.06-56.65,0,0-5.59-5.47-4.75-8.66.34-1.33,3.19-8.54,3.19-8.54l11.69-10.62s6.61,5.38,6.28,11.57c0,0,1.17,6.57,0,9.88s-3.66,10-3.66,10,.71,24.7,4.1,38.71.88,36.86-4.76,37.37-64.42-4.72-64.42-4.72S260.42,183.76,266.9,185.67Z" style="fill:#fff"></path><g style="clip-path:url(#freepik--clip-path-2--inject-70)"><g style="opacity:0.5"><path d="M329.36,185.67a3.45,3.45,0,0,1,.38,2.45,4.1,4.1,0,0,1-1.45,2.13,3.89,3.89,0,0,1-2.55.87,3.53,3.53,0,0,1-2.59-1.21l-.26-.26-.18-.29-.38-.61a13.17,13.17,0,0,1-.52-1.28,12.19,12.19,0,0,1-.45-2.69,9.85,9.85,0,0,1,.45-2.77,14.26,14.26,0,0,1,1.1-2.49,31.47,31.47,0,0,1,6.73-7.88c.27-.24.55-.48.82-.7.21,1.6.44,3.17.69,4.7a26.24,26.24,0,0,0-5.91,5.37,8.77,8.77,0,0,0-1.8,3.88,6.71,6.71,0,0,0,.77,4.14,2.68,2.68,0,0,0,3.69.64,3.58,3.58,0,0,0,1.51-1.66A3.26,3.26,0,0,0,329.36,185.67Z" style="fill:#7E57C2"></path><path d="M334,196.92a7.77,7.77,0,0,1-4.81,4.1c-5.38,1.31-12.16-1.5-16.57-5.38.17-3.15.37-6.09.6-8.9,2.87,4.54,7,9.3,11.42,9.3,8.34,0,8.27-10.78,6.1-13.07a2.62,2.62,0,0,0-4.1,0s1.25-5.22,5.27-3c.18.89.36,1.73.56,2.55A63.42,63.42,0,0,1,334,196.92Z" style="fill:#7E57C2"></path><path d="M318.37,175.7s3.43-2.2,1.71-7.1c-.83-2.38-3-2.46-5.1-1.89.15-2,.28-4,.39-6.05a8.79,8.79,0,0,1,6.48,2.89C325.29,167.6,322.42,176.74,318.37,175.7Z" style="fill:#7E57C2"></path><path d="M330,166.51a38.85,38.85,0,0,0-3.29,3,11,11,0,0,0-3.28-8.91,14.57,14.57,0,0,0-7.84-3.47c.06-1.65.11-3.33.14-5.1a12.25,12.25,0,0,1,3.85-.09c-1.9-4.82,1.47-7.9,3.85-7.6s2.18,3.36,2.18,3.36c-.86-2.48-4.71-1.75-3.17,2.35,1,2.67,4.28,2.79,6.42,2.55C329.05,156.61,329.42,161.53,330,166.51Z" style="fill:#7E57C2"></path><path d="M319.76,178.68c-.13.43-2.9,8.54-6.23,4.58.1-1.21.21-2.39.31-3.57A4.64,4.64,0,0,0,319.76,178.68Z" style="fill:#7E57C2"></path><path d="M314.3,174.72c.15-1.62.29-3.24.43-4.88,1.11-.43,2.17-.43,2.52.88C317.79,172.72,316.1,175,314.3,174.72Z" style="fill:#7E57C2"></path></g></g><path d="M266.9,185.67c29.07,8.54,45.68,11.21,45.68,11.21,1-20.68,3.67-32.08,3.06-56.65,0,0-5.59-5.47-4.75-8.66.34-1.33,3.19-8.54,3.19-8.54l11.69-10.62s6.61,5.38,6.28,11.57c0,0,1.17,6.57,0,9.88s-3.66,10-3.66,10,.71,24.7,4.1,38.71.88,36.86-4.76,37.37-64.42-4.72-64.42-4.72S260.42,183.76,266.9,185.67Z" style="fill:none;stroke:#263238;stroke-linecap:round;stroke-linejoin:round;stroke-width:1.109751046113871px"></path><path d="M237.94,178.87s17.2-1.3,27.51,2.86,27.51,8,27.51,8-1.43,20.08-7.07,27.35l-28.69,6.24S249.29,184.23,237.94,178.87Z" style="fill:#757575"></path><g style="clip-path:url(#freepik--clip-path-3--inject-70)"><path d="M284.54,217.41l-27.34,6s6.1-3.36,5.85-4.47l2.18-11.66s11.64.83,14.94,6.92v-3.46S284.5,211.19,284.54,217.41Z" style="fill-opacity:0.7000000000000001;opacity:0.2"></path></g><path d="M237.94,178.87s17.2-1.3,27.51,2.86,27.51,8,27.51,8-1.43,20.08-7.07,27.35l-28.69,6.24S249.29,184.23,237.94,178.87Z" style="fill:none;stroke:#263238;stroke-linecap:round;stroke-linejoin:round;stroke-width:1.109751046113871px"></path><path d="M277.41,214.91c1.94-15.2,14.34-20.07,32.65-16.82,0,0,3.25,18,12.44,16.61s12.86-3,16.77,2.6-6.35,15.37-4.21,25.81,11.26,29.48,9.5,43.31-10,25.72-45.93,21.14-40.26-21.22-38.89-31.95,17.28-34.08,18.41-43S276.29,223.72,277.41,214.91Z" style="fill:#7E57C2;stroke:#263238;stroke-linecap:round;stroke-linejoin:round;stroke-width:1.109751046113871px"></path><circle cx="307.27" cy="231.99" r="11.92" transform="translate(-47.27 382.11) rotate(-60)" style="fill:#263238"></circle><polygon points="313.78 225.38 302.63 223.96 317.87 118.2 325.56 119.19 313.78 225.38" style="fill:#757575;stroke:#263238;stroke-linecap:round;stroke-linejoin:round;stroke-width:1.109751046113871px"></polygon><path d="M329.81,95a8.54,8.54,0,0,0-10-1.27l-2.24-.29L316.21,118l11,1.41,4.83-24.14Z" style="fill:#7E57C2;stroke:#263238;stroke-linecap:round;stroke-linejoin:round;stroke-width:1.109751046113871px"></path><path d="M316.14,221.1l.67-5.29a11.93,11.93,0,0,0,7.73,1c4.74-.86,9.85-1.07,12.06,1.53s-2.47,10.26-3.61,15.58S332.38,246,335,253c0,0-5.36,4-6.59-6.34-1.45-12.2-7.59-13-7.59-13S322.54,227.05,316.14,221.1Z" style="fill:#757575;stroke:#263238;stroke-linecap:round;stroke-linejoin:round;stroke-width:1.109751046113871px"></path><path d="M320.71,261.62l-33.88-4.32-.94,7.4,9.56,1.22c1.27,1,4,1.88,7.21,2.29s6.08.22,7.54-.41l9.57,1.22Z" style="fill:#757575;stroke:#263238;stroke-linecap:round;stroke-linejoin:round;stroke-width:1.109751046113871px"></path><rect x="330.83" y="101.82" width="1.66" height="3.67" transform="translate(25.6 -60.87) rotate(10.9)" style="fill:#757575;stroke:#263238;stroke-linecap:round;stroke-linejoin:round;stroke-width:1.109751046113871px"></rect><rect x="329.68" y="107.79" width="1.66" height="3.67" transform="translate(26.7 -60.54) rotate(10.9)" style="fill:#757575;stroke:#263238;stroke-linecap:round;stroke-linejoin:round;stroke-width:1.109751046113871px"></rect><rect x="328.53" y="113.77" width="1.66" height="3.67" transform="translate(27.81 -60.22) rotate(10.9)" style="fill:#757575;stroke:#263238;stroke-linecap:round;stroke-linejoin:round;stroke-width:1.109751046113871px"></rect><rect x="315.19" y="99.82" width="1.66" height="3.67" transform="translate(624.98 223.09) rotate(-176.37)" style="fill:#757575;stroke:#263238;stroke-linecap:round;stroke-linejoin:round;stroke-width:1.109751046113871px"></rect><rect x="314.81" y="105.9" width="1.66" height="3.67" transform="translate(623.83 235.2) rotate(-176.37)" style="fill:#757575;stroke:#263238;stroke-linecap:round;stroke-linejoin:round;stroke-width:1.109751046113871px"></rect><rect x="314.42" y="111.97" width="1.66" height="3.67" transform="matrix(-1, -0.06, 0.06, -1, 622.69, 247.29)" style="fill:#757575;stroke:#263238;stroke-linecap:round;stroke-linejoin:round;stroke-width:1.109751046113871px"></rect><g style="opacity:0.5"><path d="M324.25,98.85a1.15,1.15,0,0,0-1.16,1.15l-1.36,14.88a.53.53,0,0,0,.4.6c.25,0,.48-.18.53-.49l2.42-14.74A1.15,1.15,0,0,0,324.25,98.85Z"></path><path d="M328,99.37a1.09,1.09,0,0,0-1.25,1L324,115.05a.58.58,0,0,0,.34.67.5.5,0,0,0,.57-.42l3.72-14.41A1.22,1.22,0,0,0,328,99.37Z"></path><path d="M320.53,98.42a1.22,1.22,0,0,0-1,1.3V114.6a.5.5,0,0,0,.44.55.55.55,0,0,0,.49-.56l1.09-14.89A1.1,1.1,0,0,0,320.53,98.42Z"></path></g><polyline points="316.49 113 318.49 118.28 298.4 263.22" style="fill:none;stroke:#fff;stroke-linecap:round;stroke-linejoin:round;stroke-width:0.8323132845854033px"></polyline><polyline points="300.32 263.47 319.78 118.45 316.78 107.88" style="fill:none;stroke:#fff;stroke-linecap:round;stroke-linejoin:round;stroke-width:0.8323132845854033px"></polyline><polyline points="302.25 263.71 321.06 118.61 317.1 102.23" style="fill:none;stroke:#fff;stroke-linecap:round;stroke-linejoin:round;stroke-width:0.8323132845854033px"></polyline><polyline points="328.21 114.49 324.94 119.1 308.03 264.45" style="fill:none;stroke:#fff;stroke-linecap:round;stroke-linejoin:round;stroke-width:0.8323132845854033px"></polyline><polyline points="306.1 264.2 323.65 118.94 329.2 109.47" style="fill:none;stroke:#fff;stroke-linecap:round;stroke-linejoin:round;stroke-width:0.8323132845854033px"></polyline><polyline points="304.18 263.96 322.36 118.78 330.32 103.9" style="fill:none;stroke:#fff;stroke-linecap:round;stroke-linejoin:round;stroke-width:0.8323132845854033px"></polyline><path d="M387.59,322.58s-9.52,14.53-19.18,15.11-23.63,0-23.63,0S367,318.29,387.59,322.58Z" style="fill:#757575;stroke:#263238;stroke-linecap:round;stroke-linejoin:round;stroke-width:1.109751046113871px"></path><path d="M380.71,317.6s1.19,10.17,0,15.4-30.6,57.47-35.93,78.36l-15.57-4.49s9.84-26.46,9.84-42.39,13.1-38.58,13.1-38.58Z" style="fill:#fff;stroke:#263238;stroke-linecap:round;stroke-linejoin:round;stroke-width:1.109751046113871px"></path><path d="M314.1,433.84c1.49,6.67,26.94,4,36.85,4.76a130.58,130.58,0,0,0,19.19,0s3.83-7.53-5.7-9.91-19.44-6.95-18.45-9,3-10.57,3-10.57-.65-2.33-8.26,1.1c0,0-7.88-6.1-12.5-6.1s-4.63,10.53-4.63,10.53Z" style="fill:#263238"></path><path d="M378.33,411.36s8.73-.88,13.89,3.26c0,0,1.58-1.76,5.15,0s5.95,6.42,11.11,8.21,17.06,4.67,21,6.25,6.74,3.34,4.36,9.52-17.06,4.13-32.93,2.42-16.66-8.79-16.66-8.79S356.91,423,378.33,411.36Z" style="fill:#263238"></path><path d="M325.56,347.23,387.81,415s-.22,8-12.39,7.88c0,0-35.72-19.92-45.1-25.61S304.18,364,304.18,364Z" style="fill:#fff"></path><g style="clip-path:url(#freepik--clip-path-4--inject-70)"><path d="M337.19,379.46c-11.21.68-8-8-8-8,1.45,5,4.65,6.15,8,2.49,4.88-5.38-9.46-21.36-15.32-11.41l-3.81-9.45A28.45,28.45,0,0,1,329.94,352l14.95,16.26C345.6,374.12,343.1,379.09,337.19,379.46Z" style="fill:#7E57C2;opacity:0.5"></path><path d="M355,379.2a5.94,5.94,0,0,1-2.92,3.42c-4.29,1.94-9.08,1.9-10.39,4.54s1.45,3.51,3.14,3.51,1.21-3.22,1.21-3.22,2.08,3.07.91,4.09-6.15,2.93-8.49-1-.58-7.31,7.58-11a6.34,6.34,0,0,0,4.08-5.59Z" style="fill:#7E57C2;opacity:0.5"></path><path d="M335.19,392.28s-8.78,1.61-11.85-4.24c-3-5.65-1-8.13-.89-8.3a7.53,7.53,0,0,0-4.41,4.62c-2.75-3.59-5.4-7.38-7.63-10.69L321.87,367s-.14,8.35,4.25,13.46,9.07,2.93,9.07,2.93S332.42,389.06,335.19,392.28Z" style="fill:#7E57C2;opacity:0.5"></path><path d="M346.72,399.6s1.58-1.51,0-2.44c-1.24-.73-3.35,3.4-8.28,4.81-3.41-2-6.28-3.63-8.12-4.75a19,19,0,0,0,7.13,0c5.5-1.32,8.57-3.81,10.48-1.76S347.71,399.75,346.72,399.6Z" style="fill:#7E57C2;opacity:0.5"></path></g><path d="M325.56,347.23,387.81,415s-.22,8-12.39,7.88c0,0-35.72-19.92-45.1-25.61S304.18,364,304.18,364Z" style="fill:none;stroke:#263238;stroke-linecap:round;stroke-linejoin:round;stroke-width:1.109751046113871px"></path><path d="M265.45,285.51s101,11.09,109.44,16.23,12.7,20.84,12.7,20.84c-19.58,3.32-42.81,15.07-42.81,15.07v-4.08S248.21,337,223,339.15" style="fill:#bfbfbf"></path><g style="clip-path:url(#freepik--clip-path-5--inject-70)"><path d="M329.49,334.14c-18.35.7-49.75,1.93-74.73,3.14l10.95-14.8,2.72-6.87s2.77-1.95,5.28-10.27c0,0,5.17,2.86,5.14,8.64,0,0,16.5.26,24.45-4.19,0,0,3.37,5.84.87,9.27C304.17,319.06,321.41,323.06,329.49,334.14Z" style="fill-opacity:0.7000000000000001;opacity:0.2"></path></g><path d="M265.45,285.51s101,11.09,109.44,16.23,12.7,20.84,12.7,20.84c-19.58,3.32-42.81,15.07-42.81,15.07v-4.08S248.21,337,223,339.15" style="fill:none;stroke:#263238;stroke-miterlimit:10;stroke-width:1.109751046113871px"></path><path d="M253.39,322c-.88-3.44,15-6.35,15-6.35s40.87,16.14,48.82,20.75,19.93,16.55,19.93,16.55c-4.91,16.4-33,26.52-33,26.52l-5.78-4.62s-76.17-10.33-83.4-20.89c-5.17-7.55-9.12-31.34-9.12-31.34l27.31-27.65" style="fill:#bfbfbf"></path><g style="clip-path:url(#freepik--clip-path-6--inject-70)"><path d="M254.05,303.69a69.67,69.67,0,0,1-9.28,18.38,62.48,62.48,0,0,1-14.24,14.74,147.78,147.78,0,0,1-18.24,11.54c-3-7.82-5.24-19.33-6.08-23.85l4.59-2Z" style="fill-opacity:0.7000000000000001;opacity:0.2"></path></g><path d="M253.39,322c-.88-3.44,15-6.35,15-6.35s40.87,16.14,48.82,20.75,19.93,16.55,19.93,16.55c-4.91,16.4-33,26.52-33,26.52l-5.78-4.62s-76.17-10.33-83.4-20.89c-5.17-7.55-9.12-31.34-9.12-31.34l27.31-27.65" style="fill:none;stroke:#263238;stroke-miterlimit:10;stroke-width:1.109751046113871px"></path><path d="M303.52,370.19a16.05,16.05,0,0,1,2.58,2.63" style="fill:none;stroke:#263238;stroke-linecap:round;stroke-linejoin:round;stroke-width:1.109751046113871px"></path><path d="M219.44,329.93c1.16,8.31,3.38,15,10,19.41,6.65,3.33,14.42,4.44,21.08,6.66,16.65,4.44,33.29,8.88,49.43,12.08" style="fill:none;stroke:#263238;stroke-linecap:round;stroke-linejoin:round;stroke-width:1.109751046113871px"></path><path d="M273.71,301s.16,10.81-2.18,15.85" style="fill:none;stroke:#263238;stroke-linecap:round;stroke-linejoin:round;stroke-width:1.109751046113871px"></path><path d="M363.38,321.29a16.85,16.85,0,0,1,5-1.23" style="fill:none;stroke:#263238;stroke-linecap:round;stroke-linejoin:round;stroke-width:1.109751046113871px"></path><path d="M344.78,333.57a76.18,76.18,0,0,1,15.7-11" style="fill:none;stroke:#263238;stroke-linecap:round;stroke-linejoin:round;stroke-width:1.109751046113871px"></path><path d="M313.81,303.45a10.64,10.64,0,0,0,2.33-2.63" style="fill:none;stroke:#263238;stroke-linecap:round;stroke-linejoin:round;stroke-width:1.109751046113871px"></path><path d="M277.06,319.06c11.58-3.32,24-7.1,34.19-13.72" style="fill:none;stroke:#263238;stroke-linecap:round;stroke-linejoin:round;stroke-width:1.109751046113871px"></path><path d="M256,297.2s1.5,9.28,6.75,11.72,5.66,6.69,5.66,6.69" style="fill:none;stroke:#263238;stroke-linecap:round;stroke-linejoin:round;stroke-width:1.109751046113871px"></path><path d="M165.83,252.85l-11.42,26.89s-3.65,17.82,6.44,20.45,14.05-1.57,17.71-14.68c2-7.14,14-28.21,14-28.21Z" style="fill:#fff;stroke:#263238;stroke-linecap:round;stroke-linejoin:round;stroke-width:1.109751046113871px"></path><path d="M173.39,285.39c3.44,7.58-3.07,18.18-13.27,18.18-13.59,0-11.29,1.82-14.41-9.89-1.68-6.29,6.36-19.75,20.7-14.35" style="fill:#fff;stroke:#263238;stroke-linecap:round;stroke-linejoin:round;stroke-width:1.109751046113871px"></path><path d="M263.05,218.89c-6.19,6.49-3.44,46.08-5.85,53.64,0,0,4.47,3.1,4.47,5.85s12,3.78,12,3.78S249,320.33,233.13,326.52a54.17,54.17,0,0,1-30.92,2.06l-15-55.88L185.75,275s-11.42-17.92-23.8-15.51c0,0,10-31.45,16.51-43.33,5-9,25.67-21.57,43.44-32.1,7.43-4.41,20.67-7.84,30.49-2.31" style="fill:#757575"></path><g style="clip-path:url(#freepik--clip-path-7--inject-70)"><path d="M204.2,268.17c.16,1-7.88,13-12.77,20.2l-4.17-15.58,6.27-9.08s7-8.78,7.5-16.46c0,0,6.62,7.68.29,19.55C201.32,266.8,204,266.7,204.2,268.17Z" style="fill-opacity:0.7000000000000001;opacity:0.2"></path><polygon points="208.23 236.36 218.09 243.45 218.52 252.17 221.83 245.88 220.97 241.41 224.8 242.75 229.7 240.92 223.81 237.58 231 234.85 229.13 237.15 231.63 238.13 238.91 236.72 239.94 233.13 236.31 233.82 235.78 231.05 241.94 227.53 242.37 229.78 243.27 234.43 245.4 232.07 247.51 228.8 248.04 231.57 252.01 230.8 248.61 226.25 250.41 211.22 240.74 221.31 243.04 222.92 247.23 219.06 245.02 225.45 239.31 223.64 231.74 228.9 234.23 231.35 226.9 232.76 229.76 228.39 220.4 232.57 220.11 236.94 217.15 238.56 216.04 232.82 208.23 236.36" style="fill:#fff"></polygon></g><path d="M263.05,218.89c-6.19,6.49-3.44,46.08-5.85,53.64,0,0,4.47,3.1,4.47,5.85s12,3.78,12,3.78S249,320.33,233.13,326.52a54.17,54.17,0,0,1-30.92,2.06l-15-55.88L185.75,275s-11.42-17.92-23.8-15.51c0,0,10-31.45,16.51-43.33,5-9,25.67-21.57,43.44-32.1,7.43-4.41,20.67-7.84,30.49-2.31" style="fill:none;stroke:#263238;stroke-linecap:round;stroke-linejoin:round;stroke-width:1.109751046113871px"></path><path d="M201.32,201.14s2,9.44,13.24,12.73,11-23.52,11-23.52Z" style="fill:#fff;stroke:#263238;stroke-linecap:round;stroke-linejoin:round;stroke-width:1.109751046113871px"></path><path d="M187.24,272.7s5.2-8.87,6.29-9,10.85-17.31,6.31-25.56" style="fill:none;stroke:#263238;stroke-linecap:round;stroke-linejoin:round;stroke-width:1.109751046113871px"></path><path d="M201,257.3s-.76,10.6-11,10.91" style="fill:none;stroke:#263238;stroke-linecap:round;stroke-linejoin:round;stroke-width:1.109751046113871px"></path><path d="M206.91,213s11.05,11.54,18.63,3.4" style="fill:none;stroke:#263238;stroke-linecap:round;stroke-linejoin:round;stroke-width:1.109751046113871px"></path><path d="M224.54,190.42a40.56,40.56,0,0,0,1.2-23.28c-2.3-9.66-13.79-22.91-31.21-10.85-9,6.21-9.53,19.69-6.73,32.05.67,2.95.17,5.83,1.14,8.54,3.45,9.51,9.75,16.83,13.19,17,5.75.29,17.25-6.67,16.77-12.73" style="fill:#fff;stroke:#263238;stroke-linecap:round;stroke-linejoin:round;stroke-width:1.109751046113871px"></path><path d="M199.84,201.7s5.68-4.13,6.76-3.56,6.43,9.21,8.4,10.05a23.49,23.49,0,0,1-2.5,5l-1.18-.51a30.62,30.62,0,0,1-10.63,3.72s-2.79-2.18-3.57-4.36l-1,1.15s-1.15-6.17,0-11Z" style="fill:#263238"></path><path d="M201.32,186.05s4.65-3.36,9.12-.61" style="fill:none;stroke:#263238;stroke-linecap:round;stroke-linejoin:round;stroke-width:1.109751046113871px"></path><path d="M192.55,185.44s-3.51-3.22-5.79-2.77" style="fill:none;stroke:#263238;stroke-linecap:round;stroke-linejoin:round;stroke-width:1.109751046113871px"></path><path d="M207.88,191.21c0,.85-.43,1.55-1,1.55s-1-.7-1-1.55.43-1.55,1-1.55S207.88,190.35,207.88,191.21Z" style="fill:#263238"></path><path d="M193.53,190.35c0,.85-.44,1.55-1,1.55s-1-.7-1-1.55.44-1.55,1-1.55S193.53,189.5,193.53,190.35Z" style="fill:#263238"></path><path d="M194.52,188.69c1.72,2.23-.69,10.75,0,11.35s5.07-1.12,5.07-1.12,1-1.29-1.11-2" style="fill:none;stroke:#263238;stroke-linecap:round;stroke-linejoin:round;stroke-width:1.109751046113871px"></path><path d="M198.49,204.3s5.88,0,7.45-2.13" style="fill:none;stroke:#fff;stroke-linecap:round;stroke-linejoin:round;stroke-width:1.109751046113871px"></path><path d="M212.5,172.47l.46,7.11s5,2.59,6.3,5.25a10.48,10.48,0,0,1,.8,5.52s3.07-5.35,4.71-4.91c.59.16.59,2.4.59,2.4s6.85-15.37.66-23.51S212.5,172.47,212.5,172.47Z" style="fill:#757575;stroke:#263238;stroke-linecap:round;stroke-linejoin:round;stroke-width:1.109751046113871px"></path><path d="M213,174s-4.09,7.67-10.22,7.67c0,0,3-2.77,3.45-5.33a42.84,42.84,0,0,1-22.78,5.33s-2.36-14.49,8.67-25.58c0,0-6.15,3-7.83,6A22.57,22.57,0,0,1,200.22,148c12.6-3.2,21.82,6.82,21.82,6.82l1.26-4.48s6.39,11.84,1.83,17.86S213,174,213,174Z" style="fill:#263238"></path><path d="M222.21,188.8s1.38-5.16,6-6.53,1.46,11-2.49,12.64-5,2.75-5.18,1.29" style="fill:#fff;stroke:#263238;stroke-linecap:round;stroke-linejoin:round;stroke-width:1.109751046113871px"></path><path d="M228.61,188.11s.22,2.15,2.72,1.55-.08-2-1.16-2" style="fill:none;stroke:#263238;stroke-linecap:round;stroke-linejoin:round;stroke-width:1.109751046113871px"></path><path d="M149,283.12s7.46-4.47,12-3.71,3.35,3.08,3.6,5.38,2.27,4.72,0,4.94-5.94-6.25-5.94-6.25Z" style="fill:#fff;stroke:#263238;stroke-linecap:round;stroke-linejoin:round;stroke-width:1.109751046113871px"></path><path d="M150.24,268.21l17.2,28.07-3.54.92-16.73-27.11A2.74,2.74,0,0,1,150.24,268.21Z" style="fill:#263238"></path><path d="M145,284.57c.31-2.18,11.85-1.53,13.17-1.31s5.26,5,5.26,5a4,4,0,0,1,0,3.74s2.3,3.3.49,5.16-18.05,3.33-18.92,2.92-2.94-7-2.75-9.15S144.43,288.43,145,284.57Z" style="fill:#fff;stroke:#263238;stroke-linecap:round;stroke-linejoin:round;stroke-width:1.109751046113871px"></path><path d="M163.41,292s-4.64-3.3-6.11-3.52-9.18,0-9.18,0" style="fill:none;stroke:#263238;stroke-linecap:round;stroke-linejoin:round;stroke-width:1.109751046113871px"></path><path d="M149,294.34s8.45-.66,8.78-.66a45.44,45.44,0,0,1,4.13,2.49" style="fill:none;stroke:#263238;stroke-linecap:round;stroke-linejoin:round;stroke-width:1.109751046113871px"></path><path d="M228.22,329.93s.88,8.64-5.27,10.69" style="fill:none;stroke:#263238;stroke-linecap:round;stroke-linejoin:round;stroke-width:1.109751046113871px"></path><path d="M333.86,349.71S328,367,302.26,375.45" style="fill:none;stroke:#263238;stroke-linecap:round;stroke-linejoin:round;stroke-width:1.109751046113871px"></path><path d="M377.49,317.6a18.82,18.82,0,0,1,8.41,0" style="fill:none;stroke:#263238;stroke-linecap:round;stroke-linejoin:round;stroke-width:1.109751046113871px"></path><path d="M290.27,322.52s52.63-.56,65,2.49l3.54,3.61" style="fill:none;stroke:#263238;stroke-linecap:round;stroke-linejoin:round;stroke-width:1.109751046113871px"></path><path d="M265.45,196.88a40.83,40.83,0,0,1-1.72,16.83" style="fill:none;stroke:#263238;stroke-miterlimit:10;stroke-width:1.109751046113871px"></path><path d="M224.24,281.66a19.76,19.76,0,0,1-3.68-1" style="fill:none;stroke:#263238;stroke-miterlimit:10;stroke-width:1.109751046113871px"></path><path d="M257.2,272.53c-8.48,5.3-19,9.74-29.09,9.52" style="fill:none;stroke:#263238;stroke-miterlimit:10;stroke-width:1.109751046113871px"></path><path d="M254.06,289.12c-8.34,9.84-21.83,24.82-36.23,23.08" style="fill:none;stroke:#263238;stroke-miterlimit:10;stroke-width:1.109751046113871px"></path><path d="M259.72,281.94c-1,1.37-2,2.71-3.08,4" style="fill:none;stroke:#263238;stroke-miterlimit:10;stroke-width:1.109751046113871px"></path><path d="M178.46,216.14s11-5,18.66,9.24" style="fill:none;stroke:#263238;stroke-miterlimit:10;stroke-width:1.109751046113871px"></path><path d="M311.25,133.86c-1.53-3.57.85-8.5,1.77-11.37s4.59-2.34,7.46-3.95c0,0,2.86.74,0,3.38a41.06,41.06,0,0,1-3.6,3.13l-.86,6" style="fill:#fff;stroke:#263238;stroke-linecap:round;stroke-linejoin:round;stroke-width:1.109751046113871px"></path><path d="M331.14,119.4a38.43,38.43,0,0,0-4.8-1.19c-.78,0-4.51,4.81-4.51,4.81l-.34,2.69a7.32,7.32,0,0,0,2.51,0,8.64,8.64,0,0,0,2.31-1.84" style="fill:#fff;stroke:#263238;stroke-linecap:round;stroke-linejoin:round;stroke-width:1.109751046113871px"></path><path d="M332.05,124s-3.44-1.14-4.7-1.49-4.94,6.75-4.94,6.75,2.87,1.85,5.8-2.5" style="fill:#fff;stroke:#263238;stroke-linecap:round;stroke-linejoin:round;stroke-width:1.109751046113871px"></path></g><g id="freepik--Furniture--inject-70"><path d="M95.18,305.21l-9.83-10.28V246.38l16.35-21,2.53,2.12s-3.26,13.86,0,16.32c5.73,4.31,25.2-12.22,22.17-18.44-1.8-3.71-17.65-3.34-17.65-3.34l-4.91-4.11a2.66,2.66,0,0,0-3.84.43L80.52,243.91v51L70.7,305.21Z" style="fill:#263238"></path><path d="M120.7,229.59a14.45,14.45,0,0,0-10.54,9.21" style="fill:none;stroke:#fff;stroke-linecap:round;stroke-linejoin:round;stroke-width:1.109751046113871px"></path><path d="M117.6,230.64s1.56,3.3-1,5.48a4.13,4.13,0,0,1-5.33.25" style="fill:none;stroke:#fff;stroke-linecap:round;stroke-linejoin:round;stroke-width:1.109751046113871px"></path><path d="M104.45,238.53s5.54-11.91,17.34-14.6" style="fill:none;stroke:#fff;stroke-linecap:round;stroke-linejoin:round;stroke-width:1.109751046113871px"></path><line x1="119.93" y1="233.1" x2="121.79" y2="233.32" style="fill:none;stroke:#fff;stroke-linecap:round;stroke-linejoin:round;stroke-width:1.109751046113871px"></line><line x1="117.35" y1="237.24" x2="118.08" y2="238.15" style="fill:none;stroke:#fff;stroke-linecap:round;stroke-linejoin:round;stroke-width:1.109751046113871px"></line><line x1="113.34" y1="238.8" x2="113.12" y2="241.11" style="fill:none;stroke:#fff;stroke-linecap:round;stroke-linejoin:round;stroke-width:1.109751046113871px"></line><path d="M201.64,308.56H60.46A2.55,2.55,0,0,1,57.91,306h0a2.55,2.55,0,0,1,2.55-2.56H201.64A2.56,2.56,0,0,1,204.2,306h0A2.56,2.56,0,0,1,201.64,308.56Z" style="fill:#7E57C2"></path><g style="clip-path:url(#freepik--clip-path-8--inject-70)"><path d="M201.64,308.56H60.46A2.55,2.55,0,0,1,57.91,306h0a2.55,2.55,0,0,1,2.55-2.56H201.64A2.56,2.56,0,0,1,204.2,306h0A2.56,2.56,0,0,1,201.64,308.56Z" style="fill-opacity:0.7000000000000001;opacity:0.5"></path></g><path d="M201.64,308.56H60.46A2.55,2.55,0,0,1,57.91,306h0a2.55,2.55,0,0,1,2.55-2.56H201.64A2.56,2.56,0,0,1,204.2,306h0A2.56,2.56,0,0,1,201.64,308.56Z" style="fill:none;stroke:#263238;stroke-linecap:round;stroke-linejoin:round;stroke-width:1.109751046113871px"></path><rect x="61.78" y="308.56" width="138.54" height="136.7" style="fill:#7E57C2"></rect><g style="clip-path:url(#freepik--clip-path-9--inject-70)"><rect x="61.78" y="308.56" width="52.44" height="136.7" style="fill-opacity:0.7000000000000001;opacity:0.30000000000000004"></rect></g><rect x="61.78" y="308.56" width="138.54" height="136.7" style="fill:none;stroke:#263238;stroke-linecap:round;stroke-linejoin:round;stroke-width:1.109751046113871px"></rect><line x1="114.22" y1="339.15" x2="114.22" y2="335.35" style="fill:none;stroke:#263238;stroke-linecap:round;stroke-linejoin:round;stroke-width:1.109751046113871px"></line><polyline points="114.22 326.94 114.22 308.56 200.32 308.56 200.32 445.25 114.22 445.25 114.22 376.91" style="fill:none;stroke:#263238;stroke-linecap:round;stroke-linejoin:round;stroke-width:1.109751046113871px"></polyline><rect x="119.95" y="315.61" width="74.19" height="19.74" style="fill:none;stroke:#263238;stroke-linecap:round;stroke-linejoin:round;stroke-width:1.109751046113871px"></rect><rect x="119.95" y="340.62" width="74.19" height="94.24" style="fill:none;stroke:#263238;stroke-linecap:round;stroke-linejoin:round;stroke-width:1.109751046113871px"></rect><path d="M160.24,320.06a2.46,2.46,0,1,1-2.46-2.46A2.46,2.46,0,0,1,160.24,320.06Z" style="fill:none;stroke:#263238;stroke-linecap:round;stroke-linejoin:round;stroke-width:1.109751046113871px"></path><circle cx="125.51" cy="387.74" r="2.46" style="fill:none;stroke:#263238;stroke-linecap:round;stroke-linejoin:round;stroke-width:1.109751046113871px"></circle><path d="M142.85,301.4s4.69-6.14,24.59-5.12,24.44,4.73,30.29,4.05l-.73,3.12H142.85Z" style="fill:#7E57C2;stroke:#263238;stroke-linecap:round;stroke-linejoin:round;stroke-width:1.109751046113871px"></path><path d="M142.85,301.4s6.37-5,18-4.1,14.31,3.61,23.71,3.52l-2.05,2.63H114.32l-2.64-3.12s4.68,1.6,12-.83C136,295.41,142.85,301.4,142.85,301.4Z" style="fill:#fff;stroke:#263238;stroke-linecap:round;stroke-linejoin:round;stroke-width:1.109751046113871px"></path><path d="M192.78,300.94a22.21,22.21,0,0,0,4.95-.61" style="fill:none;stroke:#263238;stroke-linecap:round;stroke-linejoin:round;stroke-width:1.109751046113871px"></path><path d="M184.56,300.82c1.79.11,3.59.16,5.39.17" style="fill:none;stroke:#263238;stroke-linecap:round;stroke-linejoin:round;stroke-width:1.109751046113871px"></path></g></svg>